# xmcd CD database file generated by OrangeCD 4.3
#
# Track frame offsets:
#	150
#	24992
#	39994
#	64771
#	80604
#	96210
#	114210
#	139071
#	152829
#	170882
#	187708
#	210292
#	231963
#
# Disc length: 3318 seconds
#
# Revision: 0
# Processed by: cddbd v1.4PL0 Copyright (c) Steve Scherf et al.
# Submitted via: OrangeCD 4.3
#
DISCID=9f0cf40d
DTITLE=Lil' Cuete - Theres Only One Way About It
DYEAR=1900
DGENRE=
TTITLE0=A Soldier Ready For Death
TTITLE1=Never Run
TTITLE2=Sick and Twisted
TTITLE3=Don't Want None
TTITLE4=Pop Open A Bottle
TTITLE5=Wait A Minute Homie
TTITLE6=Im Trippin'
TTITLE7=Fuck The Haters
TTITLE8=Shoot Em Up
TTITLE9=2 For You and 3 For Me
TTITLE10=I Know
TTITLE11=I'm Loading Up Mu Gun
TTITLE12=I Roll Slow
EXTD=
EXTT0=
EXTT1=
EXTT2=
EXTT3=
EXTT4=
EXTT5=
EXTT6=
EXTT7=
EXTT8=
EXTT9=
EXTT10=
EXTT11=
EXTT12=
PLAYORDER=
